# xmcd
#
# Track frame offsets:
#	150
#	15974
#	28335
#	49632
#	70767
#	90329
#	101506
#	116040
#	132966
#	153086
#	169457
#	187794
#	206103
#	219228
#	232914
#	248052
#
# Disc length: 3482 seconds
#
# Revision: 0
# Processed by: cddbd v1.5.1PL0 Copyright (c) Steve Scherf et al.
# Submitted via: dBpowerAMP V4.0
#
DISCID=c80d9810
DTITLE=Honky Tonk Hangovers - Giant Country
DYEAR=1900
DGENRE=Alt-Country
TTITLE0=Get Pickin' Guitar Man
TTITLE1=Love By The Numbers
TTITLE2=Another Someday
TTITLE3=Broken Hearts, Faded Memories
TTITLE4=Uno Mas Beso
TTITLE5=Lady Luck
TTITLE6=The Kissing Song
TTITLE7=Let's Pretend
TTITLE8=Trailer Park Behavior
TTITLE9=Begging To You
TTITLE10=Think Again
TTITLE11=The Train
TTITLE12=Girl On The Billboard
TTITLE13=Farewell
TTITLE14=Denver Joe
TTITLE15=Motorcycle Mama
EXTD=
EXTT0=
EXTT1=
EXTT2=
EXTT3=
EXTT4=
EXTT5=
EXTT6=
EXTT7=
EXTT8=
EXTT9=
EXTT10=
EXTT11=
EXTT12=
EXTT13=
EXTT14=
EXTT15=
PLAYORDER=
